<svg width="17" height="20" viewBox="0 0 17 20" fill="none" xmlns="http://www.w3.org/2000/svg">
<path d="M10.1861 12.7869C10.5403 13.0074 10.7207 13.2995 10.7275 13.6635C10.7348 14.0554 10.5792 14.344 10.2606 14.5292L3.21655 18.6116C2.89821 18.8108 2.64105 18.9114 2.44506 18.9134C2.22107 18.9156 2.00913 18.8128 1.80923 18.6048C1.60934 18.3968 1.50717 18.1739 1.50274 17.9359C1.49753 17.6559 1.65423 17.4234 1.97283 17.2381L8.04004 13.7117L1.82054 10.1836C1.53769 10.0324 1.39327 9.79588 1.38728 9.47394C1.38259 9.22198 1.46928 8.9901 1.64737 8.77829C1.82545 8.56649 2.01949 8.45952 2.22948 8.4574C2.36947 8.45598 2.53137 8.50334 2.71519 8.59948C2.913 8.69548 3.03317 8.75727 3.07569 8.78484L10.1861 12.7869Z" fill="#0F3278"/>
</svg>
